<svg width="76" height="13" viewBox="0 0 76 13" fill="none" xmlns="http://www.w3.org/2000/svg">
<path fill-rule="evenodd" clip-rule="evenodd" d="M10.7471 2.05937C10.6863 1.84318 10.5407 1.66245 10.3372 1.55056C9.9172 1.31956 9.37807 1.45708 9.13547 1.85729L9.00005 2.08065L8.86464 1.85725C8.62207 1.45715 8.08298 1.31956 7.66287 1.55053H7.66283C7.24272 1.78157 7.0983 2.29503 7.34084 2.6952L7.98416 3.75652L5.61039 7.6726H3.87977C3.39467 7.6726 3 8.0485 3 8.51055C3 8.9726 3.39467 9.3485 3.87977 9.3485H10.5611L9.54523 7.6726H7.64214L10.6592 2.69524C10.7767 2.5014 10.808 2.27556 10.7471 2.05937ZM14.1202 7.67255H12.3896L10.4222 4.42686L9.40633 6.10277L12.461 11.1421C12.5785 11.336 12.7682 11.4747 12.9953 11.5326C13.0711 11.552 13.148 11.5615 13.2244 11.5615C13.3769 11.5615 13.5273 11.5235 13.6629 11.4489C14.083 11.2179 14.2275 10.7044 13.9849 10.3043L13.4055 9.34845H14.1202C14.6053 9.34845 15 8.97255 15 8.5105C15 8.04845 14.6053 7.67255 14.1202 7.67255ZM4.01621 10.3043L4.18924 10.0189H6.22099L5.54004 11.1423C5.37725 11.4108 5.08091 11.5611 4.77665 11.5611C4.62747 11.5611 4.47643 11.525 4.33824 11.449C3.91813 11.218 3.77367 10.7045 4.01621 10.3043Z" fill="#3C3C43" fill-opacity="0.6"/>
<path d="M24.5332 10.5H25.9277L22.875 2.04492H21.4629L18.4102 10.5H19.7578L20.5371 8.21484H23.7598L24.5332 10.5ZM22.1016 3.53906H22.2012L23.4258 7.16016H20.8711L22.1016 3.53906ZM30.5684 4.02539C29.7012 4.02539 28.9512 4.46484 28.5645 5.19141H28.4707V4.13672H27.2578V12.6211H28.5176V9.53906H28.6172C28.9512 10.2129 29.6719 10.6055 30.5801 10.6055C32.1914 10.6055 33.2168 9.32812 33.2168 7.31836C33.2168 5.29688 32.1914 4.02539 30.5684 4.02539ZM30.2109 9.52734C29.1562 9.52734 28.4941 8.67773 28.4941 7.31836C28.4941 5.95312 29.1562 5.10352 30.2168 5.10352C31.2832 5.10352 31.9219 5.93555 31.9219 7.31836C31.9219 8.70117 31.2832 9.52734 30.2109 9.52734ZM38.0449 4.02539C37.1777 4.02539 36.4277 4.46484 36.041 5.19141H35.9473V4.13672H34.7344V12.6211H35.9941V9.53906H36.0938C36.4277 10.2129 37.1484 10.6055 38.0566 10.6055C39.668 10.6055 40.6934 9.32812 40.6934 7.31836C40.6934 5.29688 39.668 4.02539 38.0449 4.02539ZM37.6875 9.52734C36.6328 9.52734 35.9707 8.67773 35.9707 7.31836C35.9707 5.95312 36.6328 5.10352 37.6934 5.10352C38.7598 5.10352 39.3984 5.93555 39.3984 7.31836C39.3984 8.70117 38.7598 9.52734 37.6875 9.52734ZM45.2402 8.24414C45.334 9.74414 46.5938 10.7051 48.4688 10.7051C50.4727 10.7051 51.7266 9.69727 51.7266 8.09766C51.7266 6.83203 51.0117 6.13477 49.2773 5.71875L48.3457 5.49023C47.2441 5.2207 46.7988 4.86914 46.7988 4.25391C46.7988 3.46289 47.4902 2.95312 48.5273 2.95312C49.5117 2.95312 50.1914 3.44531 50.3145 4.24805H51.5918C51.5156 2.83594 50.2617 1.83984 48.5449 1.83984C46.6992 1.83984 45.4688 2.83594 45.4688 4.32422C45.4688 5.55469 46.166 6.28125 47.6953 6.65039L48.7852 6.91406C49.9043 7.18359 50.3965 7.59375 50.3965 8.25586C50.3965 9.0293 49.623 9.58594 48.5684 9.58594C47.4375 9.58594 46.6523 9.06445 46.541 8.24414H45.2402ZM53.7539 2.53125V4.1543H52.7402V5.16211H53.7539V8.82422C53.7539 10.0488 54.3105 10.541 55.7109 10.541C55.957 10.541 56.1914 10.5117 56.3965 10.4766V9.47461C56.2207 9.49219 56.1094 9.50391 55.916 9.50391C55.2891 9.50391 55.0137 9.20508 55.0137 8.51953V5.16211H56.3965V4.1543H55.0137V2.53125H53.7539ZM60.5039 10.623C62.3672 10.623 63.5098 9.375 63.5098 7.31836C63.5098 5.26172 62.3613 4.01367 60.5039 4.01367C58.6406 4.01367 57.4922 5.26758 57.4922 7.31836C57.4922 9.375 58.6348 10.623 60.5039 10.623ZM60.5039 9.55078C59.4082 9.55078 58.793 8.73633 58.793 7.31836C58.793 5.90039 59.4082 5.08008 60.5039 5.08008C61.5938 5.08008 62.2148 5.90039 62.2148 7.31836C62.2148 8.73047 61.5938 9.55078 60.5039 9.55078ZM65.0273 10.5H66.2871V6.69727C66.2871 5.80078 66.9609 5.18555 67.916 5.18555C68.1387 5.18555 68.5137 5.22656 68.6191 5.25586V4.07227C68.4844 4.04297 68.2441 4.02539 68.0566 4.02539C67.2246 4.02539 66.5156 4.47656 66.334 5.10352H66.2402V4.13672H65.0273V10.5ZM73.8516 8.79492C73.6172 9.31055 73.0957 9.5918 72.334 9.5918C71.3262 9.5918 70.6758 8.86523 70.6348 7.71094V7.65234H75.1406V7.21875C75.1406 5.22656 74.0684 4.01367 72.293 4.01367C70.4941 4.01367 69.3516 5.30859 69.3516 7.33008C69.3516 9.36328 70.4707 10.623 72.2988 10.623C73.7578 10.623 74.7891 9.91992 75.0645 8.79492H73.8516ZM72.2871 5.03906C73.2188 5.03906 73.8281 5.71289 73.8574 6.74414H70.6348C70.7051 5.71875 71.3555 5.03906 72.2871 5.03906Z" fill="#3C3C43" fill-opacity="0.6"/>
</svg>
